<svg xmlns="http://www.w3.org/2000/svg" width="179.663" height="62.79" viewBox="0 0 179.663 62.79">
  <g id="Group_299" data-name="Group 299" transform="translate(0.001 -59)">
    <path id="Django" d="M26.014,10.725H35.84V56.2a64.774,64.774,0,0,1-12.761,1.34c-12,0-18.249-5.422-18.249-15.822C4.83,31.7,11.465,25.2,21.737,25.2a15.7,15.7,0,0,1,4.274.51Zm0,22.894a9.751,9.751,0,0,0-3.317-.51c-4.976,0-7.848,3.061-7.848,8.422,0,5.232,2.744,8.1,7.783,8.1a23.221,23.221,0,0,0,3.382-.254ZM51.471,25.9V48.678c0,7.848-.575,11.61-2.28,14.867-1.6,3.126-3.7,5.1-8.039,7.274L32.029,66.48c4.339-2.042,6.443-3.827,7.783-6.572,1.4-2.807,1.851-6.061,1.851-14.611V25.919ZM41.646,10.782h9.825v10.1H41.646ZM57.4,28.133A29.5,29.5,0,0,1,70.422,25.2c5.04,0,8.358,1.34,9.825,3.957.814,1.465,1.084,3.382,1.084,7.466V56.6A108.071,108.071,0,0,1,67.3,57.687c-8.229,0-11.931-2.872-11.931-9.252,0-6.891,4.913-10.1,16.972-11.1V35.164c0-1.786-.9-2.442-3.382-2.442a25.731,25.731,0,0,0-11.548,3V28.128ZM72.781,43.765c-6.508.638-8.63,1.661-8.63,4.211,0,1.913,1.213,2.807,3.908,2.807a27.121,27.121,0,0,0,4.722-.446ZM86.133,27.433a58.935,58.935,0,0,1,15.44-2.231c5.04,0,8.679,1.148,10.848,3.382,2.042,2.1,2.679,4.4,2.679,9.314V57.166h-9.825V38.278c0-3.765-1.277-5.168-4.787-5.168a14.819,14.819,0,0,0-4.53.7V57.16H86.115Zm32.77,35.09a22.367,22.367,0,0,0,10.527,2.615c6.443,0,9.187-2.615,9.187-8.868v-.192a13.445,13.445,0,0,1-6.38,1.34c-8.63,0-14.1-5.678-14.1-14.674,0-11.167,8.1-17.482,22.458-17.482a61.988,61.988,0,0,1,12.825,1.4l-3.364,7.088c-2.617-.51-.212-.068-2.187-.261V34.51L148,38.656l.065,5.36c.065,1.34.065,2.68.13,4.019v2.68c0,8.422-.7,12.375-2.807,15.632q-4.592,7.181-15.887,7.165A28.1,28.1,0,0,1,118.9,71.6V62.54Zm19.54-29.349h-1.021a10.719,10.719,0,0,0-5.678,1.4c-2.361,1.34-3.573,3.765-3.573,7.21,0,4.913,2.442,7.718,6.764,7.718a12.083,12.083,0,0,0,3.7-.638V45.486c0-1.148-.065-2.442-.065-3.765l-.065-4.53-.065-3.253v-.765Zm30.228-8.1c9.825,0,15.822,6.188,15.822,16.207C184.493,51.539,178.24,58,168.286,58c-9.825,0-15.887-6.188-15.887-16.141,0-10.337,6.253-16.78,16.27-16.78Zm-.192,25.011c3.765,0,6-3.126,6-8.549,0-5.373-2.169-8.549-5.934-8.549-3.908,0-6.126,3.126-6.126,8.549s2.233,8.547,6.06,8.547Z" transform="translate(-4.831 48.275)" fill="#092e20"/>
  </g>
</svg>
