<svg xmlns="http://www.w3.org/2000/svg" width="157.258" height="58.79" viewBox="0 0 157.258 58.79">
  <g id="golang-ar21" transform="translate(-16.858 -16.442)">
    <path id="Path_3201" data-name="Path 3201" d="M28.681,34.384c-.217,0-.435-.217-.217-.435l1.521-2.173a1.129,1.129,0,0,1,.869-.435H58.231c.217,0,.435.217.217.435l-1.3,1.955a1.129,1.129,0,0,1-.869.435l-27.594.217ZM17.166,41.337c-.217,0-.435-.217-.217-.435L18.47,38.73a1.129,1.129,0,0,1,.869-.435H54.32a.467.467,0,0,1,.435.435L54.1,40.9c0,.217-.435.435-.652.435Zm18.468,7.17c-.217,0-.435-.217-.217-.435L36.5,46.117a1.129,1.129,0,0,1,.869-.435H52.582a.467.467,0,0,1,.435.435L52.8,47.855a.467.467,0,0,1-.435.435l-16.73.217Zm79.523-15.644-12.819,3.259c-1.086.217-1.3.435-2.173-.869a8.056,8.056,0,0,0-3.694-2.825c-4.78-2.39-9.56-1.738-13.906,1.086-5.215,3.259-7.822,8.256-7.822,14.557a11.968,11.968,0,0,0,10.429,11.95,14.223,14.223,0,0,0,13.036-5c.652-.869,1.3-1.738,2.173-2.825H85.607c-1.521,0-1.955-1.086-1.521-2.39,1.086-2.39,2.825-6.3,3.911-8.256a2.3,2.3,0,0,1,1.955-1.3h27.811c-.217,2.173-.217,4.128-.435,6.3a31.739,31.739,0,0,1-6.3,14.992A32.177,32.177,0,0,1,89.3,74.58c-7.6,1.086-14.557-.435-20.641-5a24.462,24.462,0,0,1-9.777-16.947C57.8,44.379,60.4,36.774,65.4,30.256A33.323,33.323,0,0,1,86.911,17c7.17-1.3,14.123-.435,20.207,3.694a23.078,23.078,0,0,1,8.908,10.864c.217.869,0,1.086-.869,1.3Z" transform="translate(0)" fill="#00acd7"/>
    <path id="Path_3202" data-name="Path 3202" d="M88.431,74.781c-6.953-.217-13.254-2.173-18.686-6.736a23.636,23.636,0,0,1-8.256-14.775c-1.3-8.691,1.086-16.3,6.3-23.031C73.439,22.852,80.175,19.158,89.3,17.42c7.822-1.3,15.209-.652,21.727,3.911A24.175,24.175,0,0,1,121.891,38.5c1.3,10.429-1.738,18.686-8.691,25.856a34.976,34.976,0,0,1-18.251,9.777c-2.39.435-4.563.435-6.518.652Zm18.251-30.853a9.74,9.74,0,0,0-.217-2.607A12.525,12.525,0,0,0,90.821,31.108c-7.17,1.521-11.733,6.084-13.471,13.254A13,13,0,0,0,84.3,58.92a14.532,14.532,0,0,0,12.385-.435c6.3-3.042,9.56-8.039,9.995-14.557Z" transform="translate(51.93 0.451)" fill="#00acd7"/>
  </g>
</svg>
