<svg xmlns="http://www.w3.org/2000/svg" width="172.15" height="54.753" viewBox="0 0 172.15 54.753">
  <g id="Odoo_logo" transform="translate(0 0)">
    <circle id="Ellipse_25" data-name="Ellipse 25" cx="20.776" cy="20.776" r="20.776" transform="translate(130.598 13.2)" fill="#888"/>
    <path id="Path_3203" data-name="Path 3203" d="M497.053,100.207A12.253,12.253,0,1,0,484.8,87.953,12.247,12.247,0,0,0,497.053,100.207Z" transform="translate(-345.679 -53.977)" fill="#fff"/>
    <circle id="Ellipse_26" data-name="Ellipse 26" cx="20.776" cy="20.776" r="20.776" transform="translate(86.549 13.2)" fill="#888"/>
    <path id="Path_3204" data-name="Path 3204" d="M343.553,100.207A12.253,12.253,0,1,0,331.3,87.953a12.247,12.247,0,0,0,12.253,12.253Z" transform="translate(-236.229 -53.977)" fill="#fff"/>
    <path id="Path_3205" data-name="Path 3205" d="M191.652,33.8v.172a20.733,20.733,0,1,1-8.236-16.587V4.132a4.132,4.132,0,1,1,8.265,0V33.6A.488.488,0,0,1,191.652,33.8Z" transform="translate(-107.027)" fill="#888"/>
    <circle id="Ellipse_27" data-name="Ellipse 27" cx="12.253" cy="12.253" r="12.253" transform="translate(51.596 21.723)" fill="#fff"/>
    <circle id="Ellipse_28" data-name="Ellipse 28" cx="20.776" cy="20.776" r="20.776" transform="translate(0 13.143)" fill="#9c5789"/>
    <circle id="Ellipse_29" data-name="Ellipse 29" cx="12.253" cy="12.253" r="12.253" transform="translate(8.322 21.752)" fill="#fff"/>
  </g>
</svg>
