<svg xmlns="http://www.w3.org/2000/svg" width="150.631" height="133.708" viewBox="0 0 150.631 133.708">
  <g id="reactjs-icon" transform="translate(1.649 1.702)">
    <circle id="Ellipse_24" data-name="Ellipse 24" cx="13.736" cy="13.736" r="13.736" transform="translate(59.93 51.287)" fill="#00d8ff"/>
    <g id="Group_298" data-name="Group 298" transform="translate(0.035 0.011)">
      <path id="Path_3198" data-name="Path 3198" d="M73.667,7.725c18.443,0,35.576,2.646,48.495,7.094C137.726,20.178,147.3,28.3,147.3,35.655c0,7.664-10.142,16.293-26.857,21.831-12.637,4.187-29.265,6.372-46.773,6.372-17.95,0-34.947-2.051-47.726-6.418C9.773,51.913.035,43.173.035,35.655c0-7.295,9.137-15.354,24.483-20.7,12.967-4.521,30.523-7.224,49.146-7.224Z" transform="translate(-0.035 29.357)" fill="none" stroke="#00d8ff" stroke-width="3.37" fill-rule="evenodd"/>
      <path id="Path_3199" data-name="Path 3199" d="M25.813,51.139c9.214-15.977,20.065-29.5,30.372-38.466C68.6,1.867,80.419-2.365,86.79,1.309c6.639,3.829,9.047,16.926,5.495,34.171-2.683,13.039-9.1,28.535-17.846,43.7C65.471,94.73,55.2,108.43,45.037,117.316c-12.864,11.245-25.3,15.314-31.813,11.559-6.32-3.642-8.736-15.586-5.7-31.553,2.562-13.491,8.99-30.05,18.291-46.183Z" transform="translate(23.505 -0.011)" fill="none" stroke="#00d8ff" stroke-width="3.37" fill-rule="evenodd"/>
      <path id="Path_3200" data-name="Path 3200" d="M25.806,79.1C16.566,63.145,10.275,46.989,7.649,33.58,4.488,17.425,6.723,5.073,13.088,1.389,19.721-2.451,32.27,2,45.437,13.694c9.955,8.839,20.177,22.134,28.949,37.286C83.378,66.515,90.118,82.253,92.741,95.5c3.318,16.761.633,29.568-5.874,33.334-6.313,3.655-17.866-.215-30.185-10.816C46.272,109.06,35.137,95.221,25.806,79.1Z" transform="translate(23.536 0.107)" fill="none" stroke="#00d8ff" stroke-width="3.37" fill-rule="evenodd"/>
    </g>
  </g>
</svg>
